<svg xmlns="http://www.w3.org/2000/svg" width="113.289" height="28.988" viewBox="0 0 113.289 28.988">
    <defs>
        <style>
            .cls-1 {
            fill: #f90;
            }

            .cls-1, .cls-2 {
            fill-rule: evenodd;
            }

            .cls-3 {
            font-size: 14px;
            font-family: AmazonEmber-Medium, Amazon Ember;
            font-weight: 500;
            letter-spacing: 0.004em;
            }
        </style>
    </defs>
    <g id="Group_31" data-name="Group 31" transform="translate(1371.289 1667.613)">
        <g id="amazon" transform="translate(-1371.291 -1667.613)">
            <path id="Path_19" data-name="Path 19" class="cls-1" d="M178.118,184.185c-5.575,4.122-13.683,6.318-20.677,6.318a37.49,37.49,0,0,1-25.272-9.629c-.507-.473-.068-1.115.574-.743a50.195,50.195,0,0,0,44.563,2.737c.946-.372,1.723.642.811,1.318Z" transform="translate(-118.384 -161.515)"/>
            <path id="Path_20" data-name="Path 20" class="cls-1" d="M542.8,172.781c-.709-.912-4.73-.439-6.521-.2-.541.068-.642-.405-.135-.743,3.21-2.264,8.446-1.588,9.055-.845s-.169,6.013-3.176,8.514c-.473.372-.912.169-.709-.338C541.984,177.477,543.5,173.727,542.8,172.781Z" transform="translate(-480.729 -152.78)"/>
            <path id="Path_21" data-name="Path 21" class="cls-2" d="M55.647,3.176V.98a.514.514,0,0,1,.541-.541h9.8a.563.563,0,0,1,.574.541V2.838c0,.3-.27.709-.743,1.385l-5.068,7.23a11.009,11.009,0,0,1,5.575,1.182,1.007,1.007,0,0,1,.507.845v2.331c0,.338-.338.709-.709.507a11.176,11.176,0,0,0-10.338.034.53.53,0,0,1-.709-.507v-2.23a2.525,2.525,0,0,1,.372-1.487l5.879-8.413h-5.1a.563.563,0,0,1-.574-.54ZM19.935,16.791H16.962a.61.61,0,0,1-.541-.507V1.014A.563.563,0,0,1,17,.473h2.77a.551.551,0,0,1,.541.507V2.973h.068A3.937,3.937,0,0,1,24.294.135c1.858,0,3.041.912,3.852,2.838A4.234,4.234,0,0,1,32.267.135a4.188,4.188,0,0,1,3.446,1.689c.946,1.284.743,3.142.743,4.8v9.663a.563.563,0,0,1-.574.541h-2.94a.581.581,0,0,1-.541-.541V8.176A20.274,20.274,0,0,0,32.335,5.3a1.567,1.567,0,0,0-1.757-1.318,1.989,1.989,0,0,0-1.791,1.25,9.361,9.361,0,0,0-.27,2.939v8.109a.563.563,0,0,1-.574.541H24.969a.581.581,0,0,1-.541-.541V8.176c0-1.689.27-4.223-1.824-4.223-2.128,0-2.061,2.433-2.061,4.223v8.109a.593.593,0,0,1-.608.507ZM75.006.135c4.426,0,6.825,3.784,6.825,8.615,0,4.662-2.635,8.379-6.825,8.379-4.325,0-6.69-3.784-6.69-8.514C68.282,3.852,70.681.135,75.006.135Zm0,3.142c-2.2,0-2.331,3.007-2.331,4.865s-.034,5.845,2.3,5.845c2.3,0,2.433-3.21,2.433-5.169a14.782,14.782,0,0,0-.439-4.054,1.868,1.868,0,0,0-1.96-1.487ZM87.54,16.791H84.567a.581.581,0,0,1-.541-.541V.946A.584.584,0,0,1,84.6.439h2.77a.578.578,0,0,1,.541.439V3.209h.068C88.824,1.115,89.973.135,92.034.135a3.934,3.934,0,0,1,3.48,1.791c.777,1.216.777,3.277.777,4.764v9.629a.556.556,0,0,1-.574.473H92.743a.615.615,0,0,1-.541-.473V8.007c0-1.689.2-4.122-1.858-4.122A1.956,1.956,0,0,0,88.621,5.1a7.014,7.014,0,0,0-.473,2.906v8.244a.619.619,0,0,1-.608.541Zm-39.7-7.3A6.043,6.043,0,0,1,47.3,12.67a2.391,2.391,0,0,1-2.061,1.351c-1.149,0-1.824-.878-1.824-2.162,0-2.534,2.264-3.007,4.426-3.007Zm3.007,7.264a.611.611,0,0,1-.709.068,7.466,7.466,0,0,1-1.723-1.993,5.92,5.92,0,0,1-4.9,2.162c-2.5,0-4.46-1.554-4.46-4.629A5.057,5.057,0,0,1,42.235,7.5a21.1,21.1,0,0,1,5.608-1.047V6.081a3.65,3.65,0,0,0-.372-2.162,2,2,0,0,0-1.655-.777,2.25,2.25,0,0,0-2.4,1.791c-.068.27-.236.541-.507.541l-2.872-.3a.52.52,0,0,1-.439-.608C40.276,1.047,43.418,0,46.256,0a6.686,6.686,0,0,1,4.493,1.487c1.453,1.351,1.318,3.176,1.318,5.135v4.629a4.185,4.185,0,0,0,1.115,2.77c.2.27.236.608,0,.777-.642.507-1.723,1.453-2.331,1.96ZM8.82,9.494a6.043,6.043,0,0,1-.541,3.176,2.391,2.391,0,0,1-2.061,1.351c-1.149,0-1.824-.878-1.824-2.162,0-2.534,2.264-3.007,4.426-3.007Zm2.973,7.264a.611.611,0,0,1-.709.068,7.466,7.466,0,0,1-1.723-1.993,5.92,5.92,0,0,1-4.9,2.162c-2.5,0-4.46-1.554-4.46-4.629A5.057,5.057,0,0,1,3.178,7.5,21.1,21.1,0,0,1,8.787,6.453V6.081a3.65,3.65,0,0,0-.372-2.162A2,2,0,0,0,6.76,3.142a2.25,2.25,0,0,0-2.4,1.791c-.068.27-.236.541-.507.541l-2.872-.3a.52.52,0,0,1-.439-.608C1.219,1.047,4.361,0,7.2,0a6.686,6.686,0,0,1,4.493,1.487c1.453,1.351,1.318,3.176,1.318,5.135v4.629a4.185,4.185,0,0,0,1.115,2.77c.2.27.236.608,0,.777-.642.507-1.723,1.453-2.331,1.96Z" transform="translate(0 0)"/>
        </g>
        <text id="_.in" data-name=".in" class="cls-3" transform="translate(-1274 -1652)"><tspan x="0" y="0">.in</tspan></text>
    </g>
</svg>
